<mxfile host="Electron" agent="Mozilla/5.0 (Macintosh; Intel Mac OS X 10_15_7) AppleWebKit/537.36 (KHTML, like Gecko) draw.io/27.0.9 Chrome/134.0.6998.205 Electron/35.4.0 Safari/537.36" version="27.0.9">
  <diagram name="第 1 页" id="dIeabbOrzdYxT8-ut455">
    <mxGraphModel dx="1426" dy="791" grid="1" gridSize="10" guides="1" tooltips="1" connect="1" arrows="1" fold="1" page="1" pageScale="1" pageWidth="827" pageHeight="1169" math="0" shadow="0">
      <root>
        <mxCell id="0" />
        <mxCell id="1" parent="0" />
        <mxCell id="zDqL9doMjQon85WqLeXj-11" value="" style="edgeStyle=orthogonalEdgeStyle;rounded=0;orthogonalLoop=1;jettySize=auto;html=1;" edge="1" parent="1" source="zDqL9doMjQon85WqLeXj-1" target="zDqL9doMjQon85WqLeXj-10">
          <mxGeometry relative="1" as="geometry" />
        </mxCell>
        <mxCell id="zDqL9doMjQon85WqLeXj-45" value="网络异步" style="edgeLabel;html=1;align=center;verticalAlign=middle;resizable=0;points=[];" vertex="1" connectable="0" parent="zDqL9doMjQon85WqLeXj-11">
          <mxGeometry x="0.25" y="-1" relative="1" as="geometry">
            <mxPoint as="offset" />
          </mxGeometry>
        </mxCell>
        <mxCell id="zDqL9doMjQon85WqLeXj-1" value="&lt;b&gt;&lt;font style=&quot;font-size: 18px;&quot;&gt;进入首页&lt;/font&gt;&lt;/b&gt;&lt;div&gt;&lt;br&gt;&lt;div&gt;&lt;span style=&quot;background-color: transparent; text-wrap-mode: nowrap; color: rgba(0, 0, 0, 0); font-family: monospace; font-size: 0px; text-align: start;&quot;&gt;%3CmxGraphModel%3E%3Croot%3E%3CmxCell%20id%3D%220%22%2F%3E%3CmxCell%20id%3D%221%22%20parent%3D%220%22%2F%3E%3CmxCell%20id%3D%222%22%20value%3D%22viewDidLoad()%20%7B%26lt%3Bdiv%26gt%3BaddKVO()%26lt%3B%2Fdiv%26gt%3B%26lt%3Bdiv%26gt%3B%7D%26lt%3B%2Fdiv%26gt%3B%22%20style%3D%22rounded%3D1%3BwhiteSpace%3Dwrap%3Bhtml%3D1%3B%22%20vertex%3D%221%22%20parent%3D%221%22%3E%3CmxGeometry%20x%3D%22200%22%20y%3D%22230%22%20width%3D%22120%22%20height%3D%2260%22%20as%3D%22geometry%22%2F%3E%3C%2FmxCell%3E%3C%2Froot%3E%3C%2FmxGraphModel%3E&lt;/span&gt;&lt;span style=&quot;background-color: transparent; color: light-dark(rgb(0, 0, 0), rgb(255, 255, 255));&quot;&gt;viewDidLoad() {&lt;/span&gt;&lt;/div&gt;&lt;div&gt;&lt;span style=&quot;background-color: transparent; color: light-dark(rgb(0, 0, 0), rgb(255, 255, 255));&quot;&gt;loadData()&lt;/span&gt;&lt;/div&gt;&lt;div&gt;addKVO()&lt;/div&gt;&lt;/div&gt;" style="rounded=1;whiteSpace=wrap;html=1;" vertex="1" parent="1">
          <mxGeometry x="270" y="50" width="160" height="80" as="geometry" />
        </mxCell>
        <mxCell id="zDqL9doMjQon85WqLeXj-2" value="App 右键任务" style="rounded=1;whiteSpace=wrap;html=1;" vertex="1" parent="1">
          <mxGeometry x="570" y="587" width="120" height="60" as="geometry" />
        </mxCell>
        <mxCell id="zDqL9doMjQon85WqLeXj-17" value="" style="edgeStyle=orthogonalEdgeStyle;rounded=0;orthogonalLoop=1;jettySize=auto;html=1;" edge="1" parent="1" source="zDqL9doMjQon85WqLeXj-6" target="zDqL9doMjQon85WqLeXj-16">
          <mxGeometry relative="1" as="geometry" />
        </mxCell>
        <mxCell id="zDqL9doMjQon85WqLeXj-6" value="&lt;span class=&quot;s1&quot;&gt;&lt;b&gt;func&lt;/b&gt;&lt;/span&gt;&lt;span class=&quot;s2&quot;&gt; &lt;/span&gt;__loadHeadSuccess&lt;span class=&quot;s2&quot;&gt;(&lt;/span&gt;" style="rounded=1;whiteSpace=wrap;html=1;" vertex="1" parent="1">
          <mxGeometry x="555" y="332" width="150" height="60" as="geometry" />
        </mxCell>
        <mxCell id="zDqL9doMjQon85WqLeXj-12" style="edgeStyle=orthogonalEdgeStyle;rounded=0;orthogonalLoop=1;jettySize=auto;html=1;entryX=0.5;entryY=0;entryDx=0;entryDy=0;" edge="1" parent="1" source="zDqL9doMjQon85WqLeXj-10" target="zDqL9doMjQon85WqLeXj-6">
          <mxGeometry relative="1" as="geometry" />
        </mxCell>
        <mxCell id="zDqL9doMjQon85WqLeXj-10" value="&lt;div&gt;请求 头部金刚区&lt;/div&gt;请求 页面数据" style="whiteSpace=wrap;html=1;rounded=1;" vertex="1" parent="1">
          <mxGeometry x="390" y="230" width="120" height="60" as="geometry" />
        </mxCell>
        <mxCell id="zDqL9doMjQon85WqLeXj-44" value="" style="edgeStyle=orthogonalEdgeStyle;rounded=0;orthogonalLoop=1;jettySize=auto;html=1;" edge="1" parent="1" source="zDqL9doMjQon85WqLeXj-14" target="zDqL9doMjQon85WqLeXj-43">
          <mxGeometry relative="1" as="geometry" />
        </mxCell>
        <mxCell id="zDqL9doMjQon85WqLeXj-14" value="&lt;p style=&quot;margin: 0px; font-variant-numeric: normal; font-variant-east-asian: normal; font-variant-alternates: normal; font-size-adjust: none; font-kerning: auto; font-optical-sizing: auto; font-feature-settings: normal; font-variation-settings: normal; font-variant-position: normal; font-variant-emoji: normal; font-stretch: normal; line-height: normal; font-family: Menlo; color: rgb(15, 104, 160); background-color: rgb(255, 255, 255); text-align: start;&quot; class=&quot;p1&quot;&gt;&lt;span style=&quot;color: rgb(155, 35, 147);&quot; class=&quot;s1&quot;&gt;&lt;b&gt;// 监听到页面切换到组件页面&lt;/b&gt;&lt;/span&gt;&lt;/p&gt;&lt;p style=&quot;margin: 0px; font-variant-numeric: normal; font-variant-east-asian: normal; font-variant-alternates: normal; font-size-adjust: none; font-kerning: auto; font-optical-sizing: auto; font-feature-settings: normal; font-variation-settings: normal; font-variant-position: normal; font-variant-emoji: normal; font-stretch: normal; line-height: normal; font-family: Menlo; color: rgb(15, 104, 160); background-color: rgb(255, 255, 255); text-align: start;&quot; class=&quot;p1&quot;&gt;&lt;span style=&quot;color: rgb(155, 35, 147);&quot; class=&quot;s1&quot;&gt;&lt;b&gt;override&lt;/b&gt;&lt;/span&gt;&lt;span style=&quot;color: rgba(0, 0, 0, 0.85);&quot; class=&quot;s2&quot;&gt; &lt;/span&gt;&lt;span style=&quot;color: rgb(155, 35, 147);&quot; class=&quot;s1&quot;&gt;&lt;b&gt;func&lt;/b&gt;&lt;/span&gt;&lt;span style=&quot;color: rgba(0, 0, 0, 0.85);&quot; class=&quot;s2&quot;&gt; &lt;/span&gt;observeValue&lt;span style=&quot;color: rgba(0, 0, 0, 0.85);&quot; class=&quot;s2&quot;&gt;(&lt;/span&gt;forKeyPath&lt;/p&gt;" style="rounded=1;whiteSpace=wrap;html=1;" vertex="1" parent="1">
          <mxGeometry x="100" y="230" width="190" height="60" as="geometry" />
        </mxCell>
        <mxCell id="zDqL9doMjQon85WqLeXj-18" style="edgeStyle=orthogonalEdgeStyle;rounded=0;orthogonalLoop=1;jettySize=auto;html=1;entryX=0.5;entryY=0;entryDx=0;entryDy=0;" edge="1" parent="1" source="zDqL9doMjQon85WqLeXj-16" target="zDqL9doMjQon85WqLeXj-2">
          <mxGeometry relative="1" as="geometry" />
        </mxCell>
        <mxCell id="zDqL9doMjQon85WqLeXj-21" value="&lt;div&gt;&lt;span style=&quot;background-color: light-dark(#ffffff, var(--ge-dark-color, #121212)); color: light-dark(rgb(0, 0, 0), rgb(255, 255, 255));&quot;&gt;Y&lt;/span&gt;&lt;/div&gt;" style="edgeLabel;html=1;align=center;verticalAlign=middle;resizable=0;points=[];" vertex="1" connectable="0" parent="zDqL9doMjQon85WqLeXj-18">
          <mxGeometry x="-0.0175" y="3" relative="1" as="geometry">
            <mxPoint as="offset" />
          </mxGeometry>
        </mxCell>
        <mxCell id="zDqL9doMjQon85WqLeXj-50" value="" style="edgeStyle=orthogonalEdgeStyle;rounded=0;orthogonalLoop=1;jettySize=auto;html=1;" edge="1" parent="1" source="zDqL9doMjQon85WqLeXj-16" target="zDqL9doMjQon85WqLeXj-49">
          <mxGeometry relative="1" as="geometry" />
        </mxCell>
        <mxCell id="zDqL9doMjQon85WqLeXj-16" value="通过 App右键菜单启动" style="rhombus;whiteSpace=wrap;html=1;rounded=1;" vertex="1" parent="1">
          <mxGeometry x="545" y="440" width="170" height="90" as="geometry" />
        </mxCell>
        <mxCell id="zDqL9doMjQon85WqLeXj-23" value="首页弹框逻辑图&lt;div&gt;v2.38&lt;/div&gt;&lt;div&gt;2025/6/25&lt;/div&gt;" style="text;html=1;align=center;verticalAlign=middle;resizable=0;points=[];autosize=1;strokeColor=none;fillColor=none;" vertex="1" parent="1">
          <mxGeometry x="11" width="110" height="60" as="geometry" />
        </mxCell>
        <mxCell id="zDqL9doMjQon85WqLeXj-26" value="" style="edgeStyle=orthogonalEdgeStyle;rounded=0;orthogonalLoop=1;jettySize=auto;html=1;" edge="1" parent="1" source="zDqL9doMjQon85WqLeXj-24" target="zDqL9doMjQon85WqLeXj-25">
          <mxGeometry relative="1" as="geometry" />
        </mxCell>
        <mxCell id="zDqL9doMjQon85WqLeXj-27" value="Y" style="edgeLabel;html=1;align=center;verticalAlign=middle;resizable=0;points=[];" vertex="1" connectable="0" parent="zDqL9doMjQon85WqLeXj-26">
          <mxGeometry x="0.0316" y="2" relative="1" as="geometry">
            <mxPoint as="offset" />
          </mxGeometry>
        </mxCell>
        <mxCell id="zDqL9doMjQon85WqLeXj-29" value="" style="edgeStyle=orthogonalEdgeStyle;rounded=0;orthogonalLoop=1;jettySize=auto;html=1;" edge="1" parent="1" source="zDqL9doMjQon85WqLeXj-24" target="zDqL9doMjQon85WqLeXj-28">
          <mxGeometry relative="1" as="geometry" />
        </mxCell>
        <mxCell id="zDqL9doMjQon85WqLeXj-30" value="N" style="edgeLabel;html=1;align=center;verticalAlign=middle;resizable=0;points=[];" vertex="1" connectable="0" parent="zDqL9doMjQon85WqLeXj-29">
          <mxGeometry x="0.1111" relative="1" as="geometry">
            <mxPoint as="offset" />
          </mxGeometry>
        </mxCell>
        <mxCell id="zDqL9doMjQon85WqLeXj-24" value="存在未弹完的活动弹框&lt;div&gt;&lt;p style=&quot;margin: 0px; font-variant-numeric: normal; font-variant-east-asian: normal; font-variant-alternates: normal; font-size-adjust: none; font-kerning: auto; font-optical-sizing: auto; font-feature-settings: normal; font-variation-settings: normal; font-variant-position: normal; font-variant-emoji: normal; font-stretch: normal; line-height: normal; font-family: Menlo; color: rgb(50, 109, 116); background-color: rgb(255, 255, 255); text-align: start;&quot; class=&quot;p1&quot;&gt;filterValidateList&lt;span style=&quot;color: rgba(0, 0, 0, 0.85);&quot; class=&quot;s1&quot;&gt;(&lt;/span&gt;popArr&lt;span style=&quot;color: rgba(0, 0, 0, 0.85);&quot; class=&quot;s1&quot;&gt;: popupArr)&lt;/span&gt;&lt;/p&gt;&lt;/div&gt;" style="rhombus;whiteSpace=wrap;html=1;rounded=1;" vertex="1" parent="1">
          <mxGeometry x="990" y="710" width="170" height="90" as="geometry" />
        </mxCell>
        <mxCell id="zDqL9doMjQon85WqLeXj-25" value="活动弹框" style="whiteSpace=wrap;html=1;rounded=1;" vertex="1" parent="1">
          <mxGeometry x="1015" y="895" width="120" height="60" as="geometry" />
        </mxCell>
        <mxCell id="zDqL9doMjQon85WqLeXj-32" value="" style="edgeStyle=orthogonalEdgeStyle;rounded=0;orthogonalLoop=1;jettySize=auto;html=1;" edge="1" parent="1" source="zDqL9doMjQon85WqLeXj-28" target="zDqL9doMjQon85WqLeXj-31">
          <mxGeometry relative="1" as="geometry" />
        </mxCell>
        <mxCell id="zDqL9doMjQon85WqLeXj-33" value="Y" style="edgeLabel;html=1;align=center;verticalAlign=middle;resizable=0;points=[];" vertex="1" connectable="0" parent="zDqL9doMjQon85WqLeXj-32">
          <mxGeometry x="-0.2211" y="4" relative="1" as="geometry">
            <mxPoint as="offset" />
          </mxGeometry>
        </mxCell>
        <mxCell id="zDqL9doMjQon85WqLeXj-35" value="" style="edgeStyle=orthogonalEdgeStyle;rounded=0;orthogonalLoop=1;jettySize=auto;html=1;" edge="1" parent="1" source="zDqL9doMjQon85WqLeXj-28" target="zDqL9doMjQon85WqLeXj-34">
          <mxGeometry relative="1" as="geometry" />
        </mxCell>
        <mxCell id="zDqL9doMjQon85WqLeXj-36" value="N" style="edgeLabel;html=1;align=center;verticalAlign=middle;resizable=0;points=[];" vertex="1" connectable="0" parent="zDqL9doMjQon85WqLeXj-35">
          <mxGeometry x="-0.0943" y="-2" relative="1" as="geometry">
            <mxPoint as="offset" />
          </mxGeometry>
        </mxCell>
        <mxCell id="zDqL9doMjQon85WqLeXj-28" value="检查 VIP 会员弹框&lt;div&gt;&lt;p style=&quot;margin: 0px; font-variant-numeric: normal; font-variant-east-asian: normal; font-variant-alternates: normal; font-size-adjust: none; font-kerning: auto; font-optical-sizing: auto; font-feature-settings: normal; font-variation-settings: normal; font-variant-position: normal; font-variant-emoji: normal; font-stretch: normal; line-height: normal; font-family: Menlo; color: rgb(50, 109, 116); background-color: rgb(255, 255, 255); text-align: start;&quot; class=&quot;p1&quot;&gt;checkVipAlert()&lt;/p&gt;&lt;/div&gt;" style="rhombus;whiteSpace=wrap;html=1;rounded=1;" vertex="1" parent="1">
          <mxGeometry x="1220" y="880" width="170" height="90" as="geometry" />
        </mxCell>
        <mxCell id="zDqL9doMjQon85WqLeXj-31" value="VIP 弹框&lt;div&gt;&lt;p style=&quot;margin: 0px; font-variant-numeric: normal; font-variant-east-asian: normal; font-variant-alternates: normal; font-size-adjust: none; font-kerning: auto; font-optical-sizing: auto; font-feature-settings: normal; font-variation-settings: normal; font-variant-position: normal; font-variant-emoji: normal; font-stretch: normal; line-height: normal; font-family: Menlo; color: rgb(28, 70, 74); background-color: rgb(255, 255, 255); text-align: start;&quot; class=&quot;p1&quot;&gt;AppPopSwiftBridge&lt;span style=&quot;color: rgba(0, 0, 0, 0.85);&quot; class=&quot;s1&quot;&gt;.&lt;/span&gt;&lt;span style=&quot;color: rgb(50, 109, 116);&quot; class=&quot;s2&quot;&gt;shared&lt;/span&gt;&lt;span style=&quot;color: rgba(0, 0, 0, 0.85);&quot; class=&quot;s1&quot;&gt;.&lt;/span&gt;&lt;span style=&quot;color: rgb(50, 109, 116);&quot; class=&quot;s2&quot;&gt;tryPop&lt;/span&gt;&lt;/p&gt;&lt;/div&gt;" style="whiteSpace=wrap;html=1;rounded=1;" vertex="1" parent="1">
          <mxGeometry x="1245" y="1065" width="120" height="60" as="geometry" />
        </mxCell>
        <mxCell id="zDqL9doMjQon85WqLeXj-34" value="插屏广告&lt;div&gt;&lt;p style=&quot;margin: 0px; font-variant-numeric: normal; font-variant-east-asian: normal; font-variant-alternates: normal; font-size-adjust: none; font-kerning: auto; font-optical-sizing: auto; font-feature-settings: normal; font-variation-settings: normal; font-variant-position: normal; font-variant-emoji: normal; font-stretch: normal; line-height: normal; font-family: Menlo; color: rgb(50, 109, 116); background-color: rgb(255, 255, 255); text-align: start;&quot; class=&quot;p1&quot;&gt;checkAdvertisementAlert&lt;span style=&quot;color: rgba(0, 0, 0, 0.85);&quot; class=&quot;s1&quot;&gt;()&lt;/span&gt;&lt;/p&gt;&lt;/div&gt;" style="whiteSpace=wrap;html=1;rounded=1;" vertex="1" parent="1">
          <mxGeometry x="1460" y="1060" width="120" height="60" as="geometry" />
        </mxCell>
        <mxCell id="zDqL9doMjQon85WqLeXj-38" value="" style="edgeStyle=none;orthogonalLoop=1;jettySize=auto;html=1;rounded=0;" edge="1" parent="1">
          <mxGeometry width="100" relative="1" as="geometry">
            <mxPoint x="525" y="695" as="sourcePoint" />
            <mxPoint x="1590" y="1140" as="targetPoint" />
            <Array as="points">
              <mxPoint x="1140" y="1140" />
            </Array>
          </mxGeometry>
        </mxCell>
        <mxCell id="zDqL9doMjQon85WqLeXj-40" value="弹框优先级" style="edgeLabel;html=1;align=center;verticalAlign=middle;resizable=0;points=[];" vertex="1" connectable="0" parent="zDqL9doMjQon85WqLeXj-38">
          <mxGeometry x="-0.1008" y="-3" relative="1" as="geometry">
            <mxPoint as="offset" />
          </mxGeometry>
        </mxCell>
        <mxCell id="zDqL9doMjQon85WqLeXj-41" style="edgeStyle=orthogonalEdgeStyle;rounded=0;orthogonalLoop=1;jettySize=auto;html=1;entryX=0.5;entryY=0;entryDx=0;entryDy=0;" edge="1" parent="1" source="zDqL9doMjQon85WqLeXj-1" target="zDqL9doMjQon85WqLeXj-14">
          <mxGeometry relative="1" as="geometry" />
        </mxCell>
        <mxCell id="zDqL9doMjQon85WqLeXj-46" value="UI 交互同步" style="edgeLabel;html=1;align=center;verticalAlign=middle;resizable=0;points=[];" vertex="1" connectable="0" parent="zDqL9doMjQon85WqLeXj-41">
          <mxGeometry x="0.3804" relative="1" as="geometry">
            <mxPoint as="offset" />
          </mxGeometry>
        </mxCell>
        <mxCell id="zDqL9doMjQon85WqLeXj-47" style="edgeStyle=orthogonalEdgeStyle;rounded=0;orthogonalLoop=1;jettySize=auto;html=1;entryX=0;entryY=0.5;entryDx=0;entryDy=0;" edge="1" parent="1" source="zDqL9doMjQon85WqLeXj-43" target="zDqL9doMjQon85WqLeXj-16">
          <mxGeometry relative="1" as="geometry">
            <Array as="points">
              <mxPoint x="195" y="485" />
            </Array>
          </mxGeometry>
        </mxCell>
        <mxCell id="zDqL9doMjQon85WqLeXj-43" value="&lt;p style=&quot;margin: 0px; font-variant-numeric: normal; font-variant-east-asian: normal; font-variant-alternates: normal; font-size-adjust: none; font-kerning: auto; font-optical-sizing: auto; font-feature-settings: normal; font-variation-settings: normal; font-variant-position: normal; font-variant-emoji: normal; font-stretch: normal; line-height: normal; font-family: Menlo; color: rgb(50, 109, 116); background-color: rgb(255, 255, 255); text-align: start;&quot; class=&quot;p1&quot;&gt;按照优先级检查弹框&lt;/p&gt;&lt;p style=&quot;margin: 0px; font-variant-numeric: normal; font-variant-east-asian: normal; font-variant-alternates: normal; font-size-adjust: none; font-kerning: auto; font-optical-sizing: auto; font-feature-settings: normal; font-variation-settings: normal; font-variant-position: normal; font-variant-emoji: normal; font-stretch: normal; line-height: normal; font-family: Menlo; color: rgb(50, 109, 116); background-color: rgb(255, 255, 255); text-align: start;&quot; class=&quot;p1&quot;&gt;checkAllAlertByPriority&lt;span style=&quot;color: rgba(0, 0, 0, 0.85);&quot; class=&quot;s1&quot;&gt;()&lt;/span&gt;&lt;/p&gt;" style="whiteSpace=wrap;html=1;rounded=1;" vertex="1" parent="1">
          <mxGeometry x="102.5" y="370" width="185" height="60" as="geometry" />
        </mxCell>
        <mxCell id="zDqL9doMjQon85WqLeXj-52" value="" style="edgeStyle=orthogonalEdgeStyle;rounded=0;orthogonalLoop=1;jettySize=auto;html=1;" edge="1" parent="1" source="zDqL9doMjQon85WqLeXj-49" target="zDqL9doMjQon85WqLeXj-51">
          <mxGeometry relative="1" as="geometry" />
        </mxCell>
        <mxCell id="zDqL9doMjQon85WqLeXj-54" value="Y" style="edgeLabel;html=1;align=center;verticalAlign=middle;resizable=0;points=[];" vertex="1" connectable="0" parent="zDqL9doMjQon85WqLeXj-52">
          <mxGeometry x="-0.2059" y="1" relative="1" as="geometry">
            <mxPoint as="offset" />
          </mxGeometry>
        </mxCell>
        <mxCell id="zDqL9doMjQon85WqLeXj-53" style="edgeStyle=orthogonalEdgeStyle;rounded=0;orthogonalLoop=1;jettySize=auto;html=1;exitX=1;exitY=0.5;exitDx=0;exitDy=0;entryX=0.5;entryY=0;entryDx=0;entryDy=0;" edge="1" parent="1" source="zDqL9doMjQon85WqLeXj-49" target="zDqL9doMjQon85WqLeXj-24">
          <mxGeometry relative="1" as="geometry" />
        </mxCell>
        <mxCell id="zDqL9doMjQon85WqLeXj-55" value="N" style="edgeLabel;html=1;align=center;verticalAlign=middle;resizable=0;points=[];" vertex="1" connectable="0" parent="zDqL9doMjQon85WqLeXj-53">
          <mxGeometry x="-0.1129" relative="1" as="geometry">
            <mxPoint as="offset" />
          </mxGeometry>
        </mxCell>
        <mxCell id="zDqL9doMjQon85WqLeXj-49" value="新用户特权弹框" style="rhombus;whiteSpace=wrap;html=1;rounded=1;" vertex="1" parent="1">
          <mxGeometry x="750" y="572" width="170" height="90" as="geometry" />
        </mxCell>
        <mxCell id="zDqL9doMjQon85WqLeXj-51" value="新用户特权弹框" style="whiteSpace=wrap;html=1;rounded=1;" vertex="1" parent="1">
          <mxGeometry x="775" y="730" width="120" height="60" as="geometry" />
        </mxCell>
        <mxCell id="zDqL9doMjQon85WqLeXj-58" value="&lt;h1 style=&quot;margin-top: 0px;&quot;&gt;弹框顺序&lt;/h1&gt;&lt;h1 style=&quot;margin-top: 0px;&quot;&gt;&lt;span style=&quot;background-color: initial; color: rgb(24, 43, 80); font-family: &amp;quot;PingFang SC&amp;quot;, &amp;quot;Microsoft YaHei&amp;quot;, &amp;quot;Helvetica Neue&amp;quot;, sans-serif; font-size: 14px; font-weight: normal;&quot;&gt;App 右键任务 &amp;gt; 新用户特权弹窗 &amp;gt; 活动弹窗＞会员弹窗 &amp;gt; 插屏广告&lt;/span&gt;&lt;/h1&gt;" style="text;html=1;whiteSpace=wrap;overflow=hidden;rounded=0;" vertex="1" parent="1">
          <mxGeometry x="650" y="50" width="560" height="90" as="geometry" />
        </mxCell>
      </root>
    </mxGraphModel>
  </diagram>
</mxfile>
